<?xml version="1.0" encoding="iso-8859-1"?>
<!-- Generator: Adobe Illustrator 21.0.0, SVG Export Plug-In . SVG Version: 6.00 Build 0)  -->
<svg version="1.1" id="Capa_1" xmlns="http://www.w3.org/2000/svg" xmlns:xlink="http://www.w3.org/1999/xlink" x="0px" y="0px"
	 viewBox="0 0 512 512" style="enable-background:new 0 0 512 512;" xml:space="preserve">
<g>
	<g transform="translate(1 1)">
		<path style="fill:#1566C0;" d="M41.667,37.401h426.667c18.851,0,34.133,15.282,34.133,34.133v307.2
			c0,18.851-15.282,34.133-34.133,34.133H41.667c-18.851,0-34.133-15.282-34.133-34.133v-307.2
			C7.533,52.683,22.815,37.401,41.667,37.401z"/>
		<path style="fill:#2296F3;" d="M41.667,37.401h401.067c18.851,0,34.133,15.282,34.133,34.133v307.2
			c0,18.851-15.282,34.133-34.133,34.133H41.667c-18.851,0-34.133-15.282-34.133-34.133v-307.2
			C7.533,52.683,22.815,37.401,41.667,37.401z"/>
		<path style="fill:#FDD834;" d="M408.6,336.068v121.429c-0.001,3.066-1.646,5.896-4.31,7.414c-2.664,1.517-5.938,1.489-8.575-0.075
			L383,457.241l-12.715-7.595c-2.675-1.621-6.029-1.621-8.704,0l-8.448,5.035l-16.981,10.155c-2.637,1.564-5.911,1.592-8.575,0.075
			s-4.31-4.347-4.31-7.414V336.068H408.6z"/>
		<path style="fill:#FFEB3A;" d="M383,336.068v121.173l-12.715-7.595c-2.675-1.621-6.029-1.621-8.704,0l-8.448,5.035l-29.867,17.92
			V336.068H383z"/>
		<path style="fill:#1566C0;" d="M63,336.068h145.067c11.782,0,21.333,9.551,21.333,21.333l0,0c0,11.782-9.551,21.333-21.333,21.333
			H63c-11.782,0-21.333-9.551-21.333-21.333l0,0C41.667,345.619,51.218,336.068,63,336.068z"/>
		<path style="fill:#FDD834;" d="M463.896,296.388c2.556,7.995-1.057,16.665-8.533,20.48l-21.845,11.093
			c-3.183,1.647-5.777,4.241-7.424,7.424L415,357.23c-3.815,7.477-12.485,11.089-20.48,8.533l-6.997-2.304l-16.299-5.291
			c-3.44-1.109-7.141-1.109-10.581,0l-5.717,1.877l-17.579,5.717c-5.058,1.681-10.617,0.823-14.933-2.304
			c-2.374-1.541-4.29-3.693-5.547-6.229l-11.093-21.845c-1.647-3.183-4.241-5.777-7.424-7.424l-21.845-11.093
			c-7.477-3.815-11.089-12.485-8.533-20.48l7.595-23.296c1.109-3.44,1.109-7.141,0-10.581l-7.595-23.296
			c-2.556-7.995,1.057-16.665,8.533-20.48l21.845-11.093c3.183-1.647,5.777-4.241,7.424-7.424l11.093-21.845
			c1.257-2.536,3.172-4.688,5.547-6.229c4.317-3.127,9.875-3.985,14.933-2.304l17.579,5.717l5.717,1.877
			c3.44,1.109,7.141,1.109,10.581,0l16.299-5.291l6.997-2.304c7.995-2.556,16.665,1.057,20.48,8.533l11.093,21.845
			c1.647,3.183,4.241,5.777,7.424,7.424l21.845,11.093c7.477,3.815,11.089,12.485,8.533,20.48l-7.595,23.296
			c-1.109,3.44-1.109,7.141,0,10.581L463.896,296.388z"/>
		<path style="fill:#FFEB3A;" d="M441.88,296.388c2.547,7.973-1.021,16.621-8.448,20.48l-21.845,11.093
			c-3.183,1.647-5.777,4.241-7.424,7.424l-11.179,21.845c-1.198,2.549-3.091,4.708-5.461,6.229l-16.299-5.291
			c-3.44-1.109-7.141-1.109-10.581,0l-5.717,1.877l-32.512,3.413c-2.374-1.541-4.29-3.693-5.547-6.229l-11.093-21.845
			c-1.647-3.183-4.241-5.777-7.424-7.424l-21.845-11.093c-7.477-3.815-11.089-12.485-8.533-20.48l7.595-23.296
			c1.109-3.44,1.109-7.141,0-10.581l-7.595-23.296c-2.556-7.995,1.057-16.665,8.533-20.48l21.845-11.093
			c3.183-1.647,5.777-4.241,7.424-7.424l11.093-21.845c1.257-2.536,3.172-4.688,5.547-6.229l32.512,3.413l5.717,1.877
			c3.44,1.109,7.141,1.109,10.581,0l16.299-5.291c2.349,1.546,4.236,3.698,5.461,6.229l11.179,21.845
			c1.647,3.183,4.241,5.777,7.424,7.424l21.845,11.093c7.427,3.859,10.995,12.507,8.448,20.48l-7.509,23.296
			c-1.109,3.44-1.109,7.141,0,10.581L441.88,296.388z"/>
		<circle style="fill:#CFD8DC;" cx="365.933" cy="267.801" r="59.733"/>
	</g>
	<g>
		<path d="M469.333,29.867H42.667C19.114,29.896,0.028,48.982,0,72.534v307.2c0.028,23.552,19.114,42.638,42.667,42.667h273.067
			v51.2c0.001,3.075,1.655,5.912,4.332,7.426c2.676,1.514,5.96,1.471,8.596-0.113l38.272-22.963l38.272,22.963
			c2.636,1.584,5.92,1.627,8.596,0.113c2.676-1.514,4.331-4.351,4.332-7.426v-51.2h51.2c23.552-0.028,42.638-19.114,42.667-42.667
			v-307.2C511.972,48.982,492.886,29.896,469.333,29.867z M284.681,260.916l-7.543-23.322c-1.316-3.999,0.5-8.359,4.267-10.24
			l21.845-11.162c4.799-2.444,8.701-6.345,11.145-11.145l11.153-21.828c1.897-3.75,6.242-5.56,10.24-4.267l23.33,7.552
			c5.118,1.673,10.635,1.673,15.753,0l23.322-7.543c4-1.324,8.364,0.494,10.24,4.267l11.162,21.845
			c2.444,4.799,6.345,8.701,11.145,11.145l21.828,11.153c3.75,1.897,5.56,6.242,4.267,10.24l-7.552,23.33
			c-1.673,5.121-1.673,10.641,0,15.761l7.543,23.322c1.316,3.999-0.5,8.359-4.267,10.24l-21.845,11.162
			c-4.799,2.444-8.701,6.345-11.145,11.145l-11.153,21.828c-1.897,3.75-6.242,5.56-10.24,4.267l-23.33-7.552
			c-5.121-1.673-10.641-1.673-15.761,0l-23.322,7.543c-4,1.324-8.364-0.494-10.24-4.267l-11.162-21.845
			c-2.444-4.799-6.345-8.701-11.145-11.145l-21.828-11.153c-3.75-1.897-5.56-6.242-4.267-10.24l7.552-23.33
			C286.348,271.557,286.351,266.037,284.681,260.916z M401.067,458.531l-29.739-17.843c-0.354-0.158-0.719-0.29-1.092-0.393
			c-0.546-0.259-1.118-0.46-1.707-0.597c-0.539-0.084-1.085-0.112-1.63-0.085c-1.144-0.092-2.291,0.148-3.302,0.691
			c-0.367,0.102-0.726,0.231-1.075,0.384L332.8,458.531v-82.492c2.775,0.044,5.539-0.362,8.183-1.203l23.322-7.543
			c1.709-0.553,3.548-0.553,5.257,0l23.33,7.552c2.57,0.831,5.253,1.257,7.953,1.263h0.222V458.531z M494.933,379.734
			c0,14.138-11.462,25.6-25.6,25.6h-51.2v-36.087c2.214-2.037,4.053-4.445,5.436-7.117l11.145-21.82
			c0.818-1.6,2.116-2.904,3.712-3.729l21.845-11.145c11.243-5.695,16.639-18.749,12.698-30.72l-7.543-23.322
			c-0.553-1.709-0.553-3.548,0-5.257l7.552-23.33c3.914-11.962-1.486-24.991-12.715-30.677l-21.82-11.11
			c-1.6-0.818-2.904-2.116-3.729-3.712l-11.145-21.837c-5.7-11.238-18.747-16.635-30.72-12.706l-23.322,7.543
			c-1.709,0.553-3.548,0.553-5.257,0l-23.33-7.552c-11.962-3.907-24.986,1.491-30.677,12.715l-11.11,21.82
			c-0.818,1.6-2.116,2.904-3.712,3.729l-21.837,11.145c-11.249,5.689-16.65,18.747-12.706,30.72l7.543,23.322
			c0.553,1.709,0.553,3.548,0,5.257l-7.552,23.33c-3.914,11.962,1.486,24.991,12.715,30.677l21.82,11.145
			c1.6,0.818,2.904,2.116,3.729,3.712l11.145,21.845c1.377,2.69,3.217,5.116,5.436,7.168v35.994H42.667
			c-14.138,0-25.6-11.462-25.6-25.6v-307.2c0-14.138,11.462-25.6,25.6-25.6h426.667c14.138,0,25.6,11.462,25.6,25.6V379.734z"/>
		<path d="M366.933,337.068c37.703,0,68.267-30.564,68.267-68.267s-30.564-68.267-68.267-68.267s-68.267,30.564-68.267,68.267
			C298.709,306.486,329.248,337.025,366.933,337.068z M366.933,217.601c28.277,0,51.2,22.923,51.2,51.2s-22.923,51.2-51.2,51.2
			s-51.2-22.923-51.2-51.2C315.762,240.536,338.668,217.629,366.933,217.601z"/>
		<path d="M68.267,166.401c-9.426,0-17.067-7.641-17.067-17.067c0-4.713-3.821-8.533-8.533-8.533s-8.533,3.821-8.533,8.533
			c0,18.851,15.282,34.133,34.133,34.133s34.133-15.282,34.133-34.133s-15.282-34.133-34.133-34.133
			c-6.905,0.002-13.132-4.158-15.773-10.538c-2.642-6.38-1.178-13.724,3.707-18.604c6.758-6.442,17.383-6.442,24.141,0
			c3.208,3.198,5.005,7.545,4.992,12.075c0,4.713,3.821,8.533,8.533,8.533c4.713,0,8.533-3.821,8.533-8.533
			c0-18.851-15.282-34.133-34.133-34.133S34.133,79.283,34.133,98.134s15.282,34.133,34.133,34.133
			c9.426,0,17.067,7.641,17.067,17.067S77.692,166.401,68.267,166.401z"/>
		<path d="M153.6,166.401c-9.426,0-17.067-7.641-17.067-17.067c0-4.713-3.821-8.533-8.533-8.533c-4.713,0-8.533,3.821-8.533,8.533
			c0,18.851,15.282,34.133,34.133,34.133s34.133-15.282,34.133-34.133s-15.282-34.133-34.133-34.133
			c-6.905,0.002-13.132-4.158-15.773-10.538c-2.642-6.38-1.178-13.724,3.707-18.604c6.758-6.442,17.383-6.442,24.141,0
			c3.208,3.198,5.005,7.545,4.992,12.075c0,4.713,3.821,8.533,8.533,8.533s8.533-3.821,8.533-8.533
			c0-18.851-15.282-34.133-34.133-34.133s-34.133,15.282-34.133,34.133s15.282,34.133,34.133,34.133
			c9.426,0,17.067,7.641,17.067,17.067S163.026,166.401,153.6,166.401z"/>
		<path d="M264.533,166.401h-42.667V72.534c0-4.713-3.821-8.533-8.533-8.533s-8.533,3.821-8.533,8.533v93.867
			c0,9.426,7.641,17.067,17.067,17.067h42.667c4.713,0,8.533-3.821,8.533-8.533S269.246,166.401,264.533,166.401z"/>
		<path d="M42.667,217.601h25.6c4.713,0,8.533-3.821,8.533-8.533s-3.82-8.533-8.533-8.533h-25.6c-4.713,0-8.533,3.82-8.533,8.533
			S37.954,217.601,42.667,217.601z"/>
		<path d="M230.4,200.534h-128c-4.713,0-8.533,3.82-8.533,8.533s3.821,8.533,8.533,8.533h128c4.713,0,8.533-3.821,8.533-8.533
			S235.113,200.534,230.4,200.534z"/>
		<path d="M230.4,243.201h-25.6c-4.713,0-8.533,3.821-8.533,8.533s3.821,8.533,8.533,8.533h25.6c4.713,0,8.533-3.82,8.533-8.533
			S235.113,243.201,230.4,243.201z"/>
		<path d="M42.667,260.267h128c4.713,0,8.533-3.82,8.533-8.533s-3.821-8.533-8.533-8.533h-128c-4.713,0-8.533,3.821-8.533,8.533
			S37.954,260.267,42.667,260.267z"/>
		<path d="M230.4,285.867H42.667c-4.713,0-8.533,3.821-8.533,8.533c0,4.713,3.821,8.533,8.533,8.533H230.4
			c4.713,0,8.533-3.821,8.533-8.533C238.933,289.688,235.113,285.867,230.4,285.867z"/>
		<path d="M209.067,328.534H64c-16.495,0-29.867,13.372-29.867,29.867c0,16.495,13.372,29.867,29.867,29.867h145.067
			c16.495,0,29.867-13.372,29.867-29.867C238.933,341.906,225.562,328.534,209.067,328.534z M209.067,371.201H64
			c-7.069,0-12.8-5.731-12.8-12.8c0-7.069,5.731-12.8,12.8-12.8h145.067c7.069,0,12.8,5.731,12.8,12.8
			C221.867,365.47,216.136,371.201,209.067,371.201z"/>
	</g>
</g>
<g>
</g>
<g>
</g>
<g>
</g>
<g>
</g>
<g>
</g>
<g>
</g>
<g>
</g>
<g>
</g>
<g>
</g>
<g>
</g>
<g>
</g>
<g>
</g>
<g>
</g>
<g>
</g>
<g>
</g>
</svg>
